<svg width="20" height="21" viewBox="0 0 20 21" fill="none" xmlns="http://www.w3.org/2000/svg">
<path d="M19.13 9.35798L1.614 0.107979C1.324 -0.0440207 0.974 0.00597923 0.741 0.233979C0.511 0.459979 0.448001 0.810979 0.591001 1.10198L4.953 10.022L0.591001 18.942C0.448001 19.234 0.511 19.585 0.741 19.81C0.886 19.95 1.074 20.022 1.264 20.022C1.384 20.022 1.504 19.994 1.614 19.935L19.131 10.685C19.376 10.555 19.531 10.299 19.531 10.021C19.531 9.74298 19.376 9.48898 19.131 9.35898L19.13 9.35798ZM2.948 2.50998L15.752 9.27198H6.255L2.948 2.51198V2.50998ZM6.255 10.77H15.753L2.948 17.535L6.255 10.772V10.77Z" fill="#FF6600"/>
</svg>
